<svg width="16" height="21" viewBox="0 0 16 21" fill="none" xmlns="http://www.w3.org/2000/svg">
<path fill-rule="evenodd" clip-rule="evenodd" d="M8.663 0H7.337C6.268 0 5.847 0.0921951 5.416 0.276585C4.984 0.462 4.624 0.740634 4.332 1.11659C4.04 1.49049 3.839 1.88078 3.548 2.93385L3.368 3.58537H1C0.734784 3.58537 0.48043 3.69329 0.292893 3.8854C0.105357 4.07751 0 4.33807 0 4.60976C0 4.88144 0.105357 5.142 0.292893 5.33411C0.48043 5.52622 0.734784 5.63415 1 5.63415H1.563L2.266 17.1585C2.348 18.5107 2.389 19.1868 2.673 19.7C2.9226 20.1517 3.30029 20.515 3.756 20.7419C4.273 21 4.935 21 6.258 21H9.742C11.065 21 11.727 21 12.244 20.7419C12.6997 20.515 13.0774 20.1517 13.327 19.7C13.611 19.1879 13.652 18.5118 13.734 17.1575L14.437 5.63415H15C15.2652 5.63415 15.5196 5.52622 15.7071 5.33411C15.8946 5.142 16 4.88144 16 4.60976C16 4.33807 15.8946 4.07751 15.7071 3.8854C15.5196 3.69329 15.2652 3.58537 15 3.58537H12.633L12.453 2.93385C12.161 1.88078 11.96 1.49049 11.668 1.11556C11.3826 0.745628 11.0094 0.456785 10.584 0.276585C10.153 0.0921951 9.731 0 8.663 0ZM10.553 3.58537L10.528 3.49317C10.325 2.75868 10.238 2.5661 10.104 2.39298C10.0281 2.29216 9.92732 2.21399 9.812 2.16659C9.612 2.08054 9.408 2.04878 8.663 2.04878H7.337C6.592 2.04878 6.387 2.08054 6.188 2.16659C6.07268 2.21399 5.97186 2.29216 5.896 2.39298C5.761 2.5661 5.675 2.75868 5.472 3.49317L5.446 3.58537H10.553ZM5.61 7.17688C5.51149 7.18032 5.41461 7.20361 5.32489 7.24543C5.23518 7.28725 5.15439 7.34678 5.08715 7.42061C5.01991 7.49444 4.96753 7.58112 4.93302 7.6757C4.8985 7.77028 4.88253 7.8709 4.886 7.9718L5.183 16.674C5.1918 16.8763 5.27824 17.0669 5.42352 17.2043C5.5688 17.3417 5.76116 17.4148 5.95876 17.4076C6.15635 17.4005 6.3432 17.3137 6.47864 17.1661C6.61408 17.0186 6.68717 16.8222 6.682 16.6197L6.385 7.91854C6.37822 7.71491 6.29276 7.52239 6.14743 7.3833C6.00209 7.24422 5.80877 7.16997 5.61 7.17688ZM9.618 7.91854C9.6271 7.71651 9.7136 7.52631 9.85873 7.3892C10.0039 7.25209 10.1959 7.17912 10.3932 7.18613C10.5905 7.19314 10.7772 7.27957 10.9127 7.42665C11.0482 7.57374 11.1216 7.76962 11.117 7.9718L10.82 16.674C10.8112 16.8763 10.7248 17.0669 10.5795 17.2043C10.4342 17.3417 10.2418 17.4148 10.0442 17.4076C9.84665 17.4005 9.6598 17.3137 9.52436 17.1661C9.38892 17.0186 9.31583 16.8222 9.321 16.6197L9.618 7.91854Z" fill="#6C757D"/>
</svg>
