<svg width="20" height="20" viewBox="0 0 20 20" fill="none" xmlns="http://www.w3.org/2000/svg">
<path d="M19 0H1C0.734783 0 0.480429 0.105357 0.292893 0.292893C0.105357 0.480429 0 0.734783 0 1V9H10.6L7.8 6.2C7.6907 6.099 7.60532 5.97487 7.55008 5.83667C7.49485 5.69848 7.47117 5.54969 7.48075 5.40118C7.49033 5.25266 7.53294 5.10816 7.60547 4.9782C7.678 4.84825 7.77862 4.73612 7.9 4.65C8.11179 4.52842 8.35679 4.47742 8.59951 4.50439C8.84223 4.53136 9.07006 4.6349 9.25 4.8L13.7 9.3C13.797 9.38899 13.8744 9.49717 13.9274 9.61767C13.9804 9.73817 14.0077 9.86837 14.0077 10C14.0077 10.1316 13.9804 10.2618 13.9274 10.3823C13.8744 10.5028 13.797 10.611 13.7 10.7L9.25 15.15C9.08519 15.3404 8.85463 15.4616 8.60437 15.4894C8.35411 15.5172 8.10257 15.4496 7.9 15.3C7.77949 15.2191 7.67914 15.1116 7.60664 14.9858C7.53414 14.8601 7.49142 14.7194 7.48176 14.5745C7.47211 14.4297 7.49577 14.2846 7.55094 14.1503C7.6061 14.0161 7.6913 13.8962 7.8 13.8L10.6 11H0V19C0 19.2652 0.105357 19.5196 0.292893 19.7071C0.480429 19.8946 0.734783 20 1 20H19C19.2652 20 19.5196 19.8946 19.7071 19.7071C19.8946 19.5196 20 19.2652 20 19V1C20 0.734783 19.8946 0.480429 19.7071 0.292893C19.5196 0.105357 19.2652 0 19 0Z" fill="#6C757D"/>
</svg>
